<?xml version="1.0" encoding="UTF-8"?>
<svg width="256px" height="256px" viewBox="0 0 256 256" version="1.1" xmlns="http://www.w3.org/2000/svg" xmlns:xlink="http://www.w3.org/1999/xlink">
    <title>ovpn</title>
    <defs>
        <radialGradient cx="41.6630582%" cy="95.81836%" fx="41.6630582%" fy="95.81836%" r="101.849333%" gradientTransform="translate(0.4166, 0.9582), scale(0.6389, 1), translate(-0.4166, -0.9582)" id="radialGradient-1">
            <stop stop-color="#E50012" offset="35%"></stop>
            <stop stop-color="#ED7600" offset="47%"></stop>
            <stop stop-color="#A4BC14" offset="59%"></stop>
            <stop stop-color="#7DB61E" offset="62%"></stop>
            <stop stop-color="#1EAA39" offset="70%"></stop>
            <stop stop-color="#0BB2AB" offset="79%"></stop>
            <stop stop-color="#00B8EE" offset="84%"></stop>
            <stop stop-color="#144FA4" offset="91%"></stop>
            <stop stop-color="#1D2183" offset="94%"></stop>
        </radialGradient>
    </defs>
    <g id="页面-1" stroke="none" stroke-width="1" fill="none" fill-rule="evenodd">
        <g id="logo" transform="translate(-18, -17)">
            <g id="ovpn" transform="translate(18, 17)">
                <rect id="矩形" x="0" y="0" width="256" height="256"></rect>
                <polyline id="路径" fill="#90CAF9" points="218 73.4215039 218 256 38 256 38 0 142.95554 0"></polyline>
                <g id="编组-2" transform="translate(74, 116)" fill-rule="nonzero">
                    <path d="M106,45.4531044 C106,46.7331572 105.941875,47.990753 105.82339,49.2483487 C105.733968,50.2364597 104.873274,51 103.894096,51 L80.7671566,51 C80.7671566,50.7978864 80.7671566,50.5508587 80.7671566,50.326288 C80.7671566,30.6314399 64.9125162,14.6869221 45.3177725,14.6869221 C39.3823424,14.6869221 33.8001319,16.1466314 28.9020048,18.7067371 C26.9727106,19.7173052 25.0724788,17.3593131 26.4965349,15.7199472 C34.8083726,6.08586526 47.0704569,0 60.727535,0 C85.7234084,0 106,20.3685601 106,45.4980185 L106,45.4531044 Z" id="路径" fill="#000000"></path>
                    <path d="M107.955229,102.516171 C107.955229,104.251878 107.910458,105.965044 107.75376,107.633126 C107.632878,108.985626 106.473311,110 105.136899,110 L73.9226034,110 C73.9517046,109.706959 73.9517046,109.391375 73.9517046,109.075792 C73.9517046,82.4315583 52.5489595,60.8366547 26.0893374,60.8366547 C18.0932485,60.8366547 10.5426305,62.8203202 3.91429367,66.3142764 C1.32653368,67.7118589 -1.25898777,64.4884025 0.672878038,62.2793205 C11.8812814,49.250245 28.4398114,41 46.8697665,41 C80.611381,41 108,68.5684417 108,102.538713 L107.955229,102.516171 Z" id="路径" fill="url(#radialGradient-1)"></path>
                    <path d="M2.02895323,69.9523615 L2.02895323,107.080556 C2.02895323,108.707422 3.33184855,110 4.95768374,110 L20.0712695,110 C21.6391982,110 22.9398664,108.707422 22.9398664,107.080556 L22.9398664,64.5814762 C16.1959911,65.0271928 9.83741648,66.854631 4.12917595,69.8186465 C3.36080178,70.1975056 2.65033408,70.2643631 2,69.9969331 L2.02895323,69.9523615 Z M20.1002227,1 C10.1336303,1 2.06013363,9.0897567 2.06013363,19.0515232 L2.06013363,57.9402985 C7.88641425,51.5888366 15.013363,46.4630955 23,43.0310775 L23,3.94172971 C23,2.31486404 21.6971047,1 20.1314031,1 L20.1002227,1 Z" id="形状" fill="#000000"></path>
                </g>
                <polygon id="路径-2" fill="#E1F5FE" transform="translate(172.98, 44.02) scale(-1, -1) translate(-172.98, -44.02)" points="209 8 136.959951 8 209 80.0400492"></polygon>
            </g>
        </g>
    </g>
</svg>