<?xml version="1.0" encoding="UTF-8"?>
<svg width="256px" height="256px" viewBox="0 0 256 256" version="1.1" xmlns="http://www.w3.org/2000/svg" xmlns:xlink="http://www.w3.org/1999/xlink">
    <title>package2</title>
    <defs>
        <radialGradient cx="41.6630582%" cy="95.81836%" fx="41.6630582%" fy="95.81836%" r="102.332948%" gradientTransform="translate(0.4166, 0.9582), scale(0.6359, 1), translate(-0.4166, -0.9582)" id="radialGradient-1">
            <stop stop-color="#E50012" offset="35%"></stop>
            <stop stop-color="#ED7600" offset="47%"></stop>
            <stop stop-color="#A4BC14" offset="59%"></stop>
            <stop stop-color="#7DB61E" offset="62%"></stop>
            <stop stop-color="#1EAA39" offset="70%"></stop>
            <stop stop-color="#0BB2AB" offset="79%"></stop>
            <stop stop-color="#00B8EE" offset="84%"></stop>
            <stop stop-color="#144FA4" offset="91%"></stop>
            <stop stop-color="#1D2183" offset="94%"></stop>
        </radialGradient>
    </defs>
    <g id="页面-1" stroke="none" stroke-width="1" fill="none" fill-rule="evenodd">
        <g id="logo" transform="translate(-379, -308)">
            <g id="package2" transform="translate(379, 308)">
                <g id="编组-2" fill-rule="nonzero">
                    <path d="M180,76.6464113 C180,78.8049317 179.901188,80.9255834 179.699763,83.0462351 C179.547745,84.7124615 178.084566,86 176.419963,86 L137.104166,86 C137.104166,85.659181 137.104166,85.2426244 137.104166,84.8639366 C137.104166,51.6530163 110.151278,24.7661823 76.8402132,24.7661823 C66.7499821,24.7661823 57.2602242,27.227653 48.9334082,31.544694 C45.6536081,33.2487891 42.4232139,29.2725672 44.8441093,26.5081462 C58.9742333,10.2624395 79.8197768,0 103.03681,0 C145.529794,0 180,34.3469837 180,76.7221488 L180,76.6464113 Z" id="路径" fill="#000000"></path>
                    <path d="M183.923724,174.310029 C183.923724,177.253185 183.847447,180.158118 183.58048,182.986606 C183.374533,185.279974 181.398975,187 179.122124,187 L125.942213,187 C125.991793,186.503104 125.991793,185.967984 125.991793,185.432865 C125.991793,140.253512 89.5278569,103.636067 44.4485007,103.636067 C30.8255345,103.636067 17.9615186,106.999673 6.66879663,112.924208 C2.26002034,115.294022 -2.14494213,109.828161 1.14638481,106.082326 C20.2421831,83.9895459 48.453012,70 79.8521947,70 C137.337908,70 184,116.746488 184,174.348252 L183.923724,174.310029 Z" id="路径" fill="url(#radialGradient-1)"></path>
                    <path d="M4.04825538,119.029237 L4.04825538,182.044981 C4.04825538,184.806175 6.21974759,187 8.9294729,187 L34.1187825,187 C36.731997,187 38.8997773,184.806175 38.8997773,182.044981 L38.8997773,109.913515 C27.6599852,110.670006 17.0623608,113.771621 7.54862658,118.80229 C6.26800297,119.445308 5.08389013,119.558781 4,119.104887 L4.04825538,119.029237 Z M34.1670379,2 C17.5560505,2 4.10022272,15.730321 4.10022272,32.6379064 L4.10022272,98.641791 C13.8106904,87.861787 25.6889384,79.1621345 39,73.3371499 L39,6.992844 C39,4.23164997 36.8285078,2 34.2190052,2 L34.1670379,2 Z" id="形状" fill="#000000"></path>
                </g>
                <g id="编组" transform="translate(111, 111)">
                    <rect id="矩形" fill="#CFCAC2" x="0" y="0" width="145" height="145" rx="19.8242188"></rect>
                    <rect id="矩形" fill="#635B59" x="45.3125" y="24.921875" width="53.8085938" height="13.0273438" rx="6.51367188"></rect>
                </g>
            </g>
        </g>
    </g>
</svg>